<?xml version="1.0" standalone="no"?>
<!DOCTYPE svg PUBLIC "-//W3C//DTD SVG 20010904//EN"
 "http://www.w3.org/TR/2001/REC-SVG-20010904/DTD/svg10.dtd">
<svg version="1.0" xmlns="http://www.w3.org/2000/svg"
 width="500.000000pt" height="500.000000pt" viewBox="0 0 500.000000 500.000000"
 preserveAspectRatio="xMidYMid meet">
<metadata>
Created by potrace 1.14, written by Peter Selinger 2001-2017
</metadata>
<g transform="translate(0.000000,500.000000) scale(0.100000,-0.100000)"
fill="#000000" stroke="none">
<path d="M1189 4425 c0 -6 -1 -651 -1 -1435 l0 -1425 241 -2 241 -2 0 855 0
856 765 -766 c421 -421 768 -766 770 -766 3 0 5 152 5 338 l0 337 -1010 1010
c-555 555 -1010 1005 -1011 1000z"/>
<path d="M3220 3825 c-333 -333 -607 -608 -609 -610 -2 -3 72 -81 165 -174
l169 -170 201 200 201 200 0 -843 c1 -464 2 -848 2 -855 1 -8 67 -11 241 -11
l240 -1 0 1435 c0 789 -1 1434 -3 1434 -1 0 -275 -272 -607 -605z"/>
<path d="M1940 2545 c-69 -69 -127 -128 -129 -130 -3 -3 -5 -611 -2 -665 1 -9
136 119 301 285 l300 300 -168 168 c-92 92 -169 167 -172 167 -3 0 -62 -56
-130 -125z"/>
<path d="M725 869 l0 -147 35 1 35 1 -3 76 c-7 135 -8 134 88 36 47 -48 85
-92 85 -99 0 -6 18 -12 40 -13 l40 -2 0 147 0 148 -38 1 c-32 2 -37 -1 -30
-16 7 -14 8 -63 4 -159 -1 -17 -13 -8 -68 50 -38 39 -76 79 -86 89 -10 10 -15
23 -12 28 3 4 -16 8 -42 7 l-48 -1 0 -147z"/>
<path d="M2569 1001 c9 -20 8 -252 -2 -268 -5 -8 6 -10 35 -8 55 4 55 4 40 13
-9 6 -12 33 -10 98 l3 89 42 -80 c70 -134 62 -133 122 -22 29 54 54 97 55 97
1 0 3 -40 3 -90 0 -56 -3 -90 -10 -90 -6 0 -7 -3 -3 -7 10 -11 86 -11 80 -1
-7 11 -7 265 0 277 3 5 -16 9 -44 8 -37 0 -50 -4 -50 -15 0 -13 -81 -165 -86
-159 -20 26 -84 154 -80 163 3 9 -10 12 -49 12 -46 -1 -53 -4 -46 -17z"/>
<path d="M1211 933 c-8 -21 -32 -77 -55 -124 l-41 -87 36 1 c25 1 35 5 32 13
-3 7 0 21 5 31 9 14 23 18 71 18 57 0 61 -2 70 -27 5 -14 7 -28 5 -31 -2 -2
13 -4 33 -4 l38 0 -56 116 c-31 64 -55 119 -52 124 2 4 -13 7 -34 7 -36 0 -40
-3 -52 -37z m86 -100 c-8 -7 -68 -9 -73 -2 -3 5 3 27 13 48 l18 39 22 -41 c11
-23 20 -43 20 -44z"/>
<path d="M1503 954 c-43 -21 -65 -58 -65 -105 1 -79 51 -122 142 -124 60 -2
95 11 125 47 28 33 33 89 13 133 -26 57 -144 84 -215 49z m149 -54 c25 -26 29
-36 24 -63 -10 -50 -39 -72 -93 -71 -37 1 -51 6 -70 28 -75 88 56 188 139 106z"/>
<path d="M1814 847 l-1 -123 26 -2 26 -2 -3 88 -3 87 23 -40 c13 -22 34 -61
47 -88 l24 -47 21 37 c12 21 32 59 46 86 l25 47 5 -82 c5 -82 5 -83 33 -85 18
-1 25 2 21 9 -9 14 -7 214 1 228 4 6 -9 10 -32 9 -37 0 -39 -2 -74 -72 -20
-40 -40 -71 -45 -71 -5 1 -24 34 -44 73 -32 64 -38 70 -66 71 l-30 0 0 -123z"/>
<path d="M2216 958 c10 -16 12 -218 2 -218 -5 0 -8 -4 -8 -8 0 -5 18 -9 40 -9
37 -1 51 9 32 21 -8 5 -7 189 2 212 4 11 -4 14 -35 14 -29 0 -38 -3 -33 -12z"/>
<path d="M3090 952 c0 -10 -11 -40 -24 -68 -19 -40 -38 -79 -74 -156 -2 -3 12
-6 30 -5 18 1 33 7 33 12 3 42 15 51 73 51 59 0 90 -20 79 -50 -4 -9 6 -13 34
-13 22 0 38 3 36 6 -28 53 -107 222 -107 230 0 6 -18 11 -40 11 -32 0 -40 -4
-40 -18z m62 -79 c20 -41 19 -42 -12 -48 -41 -8 -50 5 -33 48 8 20 18 37 22
37 3 -1 14 -17 23 -37z"/>
<path d="M3345 858 c1 -62 -2 -118 -6 -124 -6 -7 2 -11 24 -11 l32 0 -3 91 -3
91 39 -40 c21 -22 58 -62 82 -90 30 -34 51 -50 70 -52 l26 -1 0 124 0 124 -25
0 c-26 0 -26 0 -24 -80 2 -44 0 -80 -3 -80 -10 0 -139 143 -136 152 1 4 -15 8
-36 8 l-39 0 2 -112z"/>
<path d="M3755 956 c-43 -19 -66 -49 -72 -94 -11 -85 47 -136 157 -135 92 0
120 14 120 57 0 19 3 41 6 49 4 13 -7 16 -65 19 l-71 3 0 -29 c0 -20 3 -27 10
-20 16 16 78 5 76 -14 -5 -35 -125 -38 -158 -4 -29 28 -31 78 -4 108 31 37
106 45 145 16 l28 -21 12 26 c14 30 16 27 -28 42 -45 15 -119 13 -156 -3z"/>
<path d="M4095 956 c-52 -22 -72 -66 -66 -142 2 -29 32 -61 72 -77 30 -13 52
-14 126 -9 35 3 82 49 89 89 11 57 -10 106 -55 131 -45 25 -119 29 -166 8z
m139 -48 c43 -38 40 -100 -6 -128 -62 -38 -148 -1 -148 65 0 74 97 113 154 63z"/>
</g>
</svg>
