<?xml version="1.0" standalone="no"?>
<!DOCTYPE svg PUBLIC "-//W3C//DTD SVG 20010904//EN"
 "http://www.w3.org/TR/2001/REC-SVG-20010904/DTD/svg10.dtd">
<svg version="1.0" xmlns="http://www.w3.org/2000/svg"
 width="500.000000pt" height="500.000000pt" viewBox="0 0 500.000000 500.000000"
 preserveAspectRatio="xMidYMid meet">
<metadata>
Created by potrace 1.14, written by Peter Selinger 2001-2017
</metadata>
<g transform="translate(0.000000,500.000000) scale(0.100000,-0.100000)"
fill="#000000" stroke="none">
<path d="M1190 2997 l0 -1437 240 0 240 0 0 858 1 857 762 -768 c419 -422 765
-768 770 -767 4 0 7 152 7 338 l0 337 -1010 1010 -1010 1010 0 -1438z"/>
<path d="M3215 3820 l-610 -610 170 -170 170 -170 202 202 203 203 0 -858 0
-857 240 0 240 0 0 1435 c0 789 -1 1435 -3 1435 -1 0 -277 -274 -612 -610z"/>
<path d="M1937 2542 l-127 -127 0 -340 0 -340 300 300 300 300 -167 167 c-92
93 -170 168 -173 168 -3 0 -63 -57 -133 -128z"/>
<path d="M725 870 l0 -150 35 0 35 0 -3 102 -3 103 90 -90 c50 -49 89 -96 86
-102 -3 -9 8 -13 38 -13 l42 0 0 150 0 150 -35 0 -35 0 3 -97 3 -98 -87 87
c-47 48 -83 92 -79 98 4 6 -11 10 -42 10 l-48 0 0 -150z"/>
<path d="M2565 870 l0 -150 44 0 c36 0 41 2 32 14 -8 9 -11 46 -9 102 l3 87
48 -91 c26 -50 52 -94 57 -97 5 -3 32 39 62 92 l53 98 3 -88 c2 -57 -1 -94 -9
-103 -9 -12 -4 -14 32 -14 l44 0 0 150 0 150 -47 0 c-39 0 -48 -3 -48 -17 -1
-10 -20 -50 -43 -90 l-43 -72 -42 80 c-24 43 -40 83 -37 89 4 6 -14 10 -47 10
l-53 0 0 -150z"/>
<path d="M1210 933 c-7 -21 -32 -77 -55 -125 l-42 -88 39 0 c24 0 37 4 33 10
-3 6 -3 19 0 31 6 18 14 20 73 17 65 -3 67 -4 70 -30 3 -25 7 -28 41 -28 l37
0 -53 111 c-29 60 -53 117 -53 125 0 10 -12 14 -38 14 -35 0 -39 -3 -52 -37z
m80 -95 c0 -5 -16 -8 -35 -8 -19 0 -35 2 -35 4 0 2 7 21 16 42 l16 39 19 -35
c10 -19 18 -38 19 -42z"/>
<path d="M1499 955 c-40 -22 -59 -58 -59 -113 0 -35 6 -54 21 -71 64 -69 192
-66 247 4 44 55 20 154 -43 181 -44 18 -132 17 -166 -1z m152 -54 c45 -45 36
-97 -23 -127 -40 -21 -91 -11 -118 23 -28 36 -25 69 9 104 41 40 91 40 132 0z"/>
<path d="M1810 845 l0 -125 28 0 27 0 -3 87 -2 88 46 -89 c33 -64 48 -86 54
-75 4 8 27 48 50 89 l41 75 -3 -88 -3 -87 30 0 30 0 0 125 0 125 -35 0 c-33
-1 -37 -4 -70 -71 -19 -39 -38 -73 -42 -75 -9 -6 -79 126 -73 137 4 5 -12 9
-34 9 l-41 0 0 -125z"/>
<path d="M2215 845 l0 -125 35 0 35 0 0 125 0 125 -35 0 -35 0 0 -125z"/>
<path d="M3083 931 c-7 -22 -31 -77 -53 -122 -22 -45 -40 -84 -40 -86 0 -1 16
-3 36 -3 24 0 34 4 31 13 -2 6 0 20 5 30 7 13 22 17 68 17 49 0 61 -3 70 -20
6 -11 8 -25 5 -30 -4 -6 11 -10 35 -10 23 0 40 3 38 8 -58 114 -107 226 -102
233 3 5 -14 9 -38 9 -41 0 -44 -2 -55 -39z m67 -61 l20 -40 -39 0 -39 0 15 40
c9 22 18 40 19 40 2 0 13 -18 24 -40z"/>
<path d="M3338 845 l3 -125 27 0 27 0 -3 92 -3 93 75 -80 c41 -44 75 -86 76
-92 0 -8 14 -13 34 -13 l35 0 3 125 3 125 -30 0 -30 0 3 -80 c2 -44 2 -80 -1
-80 -10 0 -132 132 -135 146 -2 9 -17 14 -45 14 l-42 0 3 -125z"/>
<path d="M3743 950 c-49 -30 -66 -63 -60 -116 6 -54 25 -78 83 -100 49 -19
136 -15 176 8 19 11 23 21 23 61 l0 47 -52 0 c-28 0 -58 3 -67 6 -12 5 -16 -1
-16 -23 0 -27 2 -28 40 -25 35 4 40 1 40 -16 0 -40 -126 -38 -160 3 -20 24
-14 85 9 109 28 28 119 30 148 3 19 -16 20 -16 32 9 14 31 16 28 -28 43 -53
18 -131 14 -168 -9z"/>
<path d="M4082 950 c-42 -26 -66 -81 -57 -128 27 -144 295 -128 295 18 0 84
-54 130 -152 130 -36 0 -64 -7 -86 -20z m158 -45 c43 -39 24 -115 -34 -135
-107 -35 -177 94 -81 149 26 15 92 7 115 -14z"/>
</g>
</svg>
